<mxfile host="app.diagrams.net" agent="Mozilla/5.0 (Windows NT 10.0; Win64; x64; rv:143.0) Gecko/20100101 Firefox/143.0" version="28.2.7">
  <diagram name="第 1 页" id="sUjrsr-3F8aG3lY-iyfI">
    <mxGraphModel dx="550" dy="259" grid="1" gridSize="10" guides="1" tooltips="1" connect="1" arrows="1" fold="1" page="1" pageScale="1" pageWidth="827" pageHeight="1169" math="0" shadow="0">
      <root>
        <mxCell id="0" />
        <mxCell id="1" parent="0" />
        <mxCell id="8jhFf3LtY-YSPnvbyiWp-30" value="" style="rounded=0;whiteSpace=wrap;html=1;dashed=1;dashPattern=8 8;fillColor=#f8cecc;strokeColor=#b85450;" vertex="1" parent="1">
          <mxGeometry x="370" y="495" width="40" height="31" as="geometry" />
        </mxCell>
        <mxCell id="8jhFf3LtY-YSPnvbyiWp-1" value="" style="rounded=0;whiteSpace=wrap;html=1;fillColor=#fff2cc;strokeColor=#d6b656;" vertex="1" parent="1">
          <mxGeometry x="240" y="350" width="10" height="10" as="geometry" />
        </mxCell>
        <mxCell id="8jhFf3LtY-YSPnvbyiWp-6" style="edgeStyle=orthogonalEdgeStyle;rounded=0;orthogonalLoop=1;jettySize=auto;html=1;entryX=1;entryY=0.5;entryDx=0;entryDy=0;" edge="1" parent="1" source="8jhFf3LtY-YSPnvbyiWp-3" target="8jhFf3LtY-YSPnvbyiWp-4">
          <mxGeometry relative="1" as="geometry" />
        </mxCell>
        <mxCell id="8jhFf3LtY-YSPnvbyiWp-3" value="" style="rounded=0;whiteSpace=wrap;html=1;fillColor=#dae8fc;strokeColor=#6c8ebf;" vertex="1" parent="1">
          <mxGeometry x="310" y="320" width="10" height="10" as="geometry" />
        </mxCell>
        <mxCell id="8jhFf3LtY-YSPnvbyiWp-4" value="" style="rounded=0;whiteSpace=wrap;html=1;fillColor=#fff2cc;strokeColor=#d6b656;" vertex="1" parent="1">
          <mxGeometry x="240" y="320" width="10" height="10" as="geometry" />
        </mxCell>
        <mxCell id="8jhFf3LtY-YSPnvbyiWp-7" style="edgeStyle=orthogonalEdgeStyle;rounded=0;orthogonalLoop=1;jettySize=auto;html=1;entryX=1;entryY=0.5;entryDx=0;entryDy=0;" edge="1" parent="1" source="8jhFf3LtY-YSPnvbyiWp-5" target="8jhFf3LtY-YSPnvbyiWp-1">
          <mxGeometry relative="1" as="geometry" />
        </mxCell>
        <mxCell id="8jhFf3LtY-YSPnvbyiWp-5" value="" style="rounded=0;whiteSpace=wrap;html=1;fillColor=#dae8fc;strokeColor=#6c8ebf;" vertex="1" parent="1">
          <mxGeometry x="310" y="350" width="10" height="10" as="geometry" />
        </mxCell>
        <mxCell id="8jhFf3LtY-YSPnvbyiWp-8" value="" style="rounded=0;whiteSpace=wrap;html=1;fillColor=#fff2cc;strokeColor=#d6b656;" vertex="1" parent="1">
          <mxGeometry x="360" y="345" width="10" height="10" as="geometry" />
        </mxCell>
        <mxCell id="8jhFf3LtY-YSPnvbyiWp-9" style="edgeStyle=orthogonalEdgeStyle;rounded=0;orthogonalLoop=1;jettySize=auto;html=1;entryX=1;entryY=0.5;entryDx=0;entryDy=0;" edge="1" parent="1" source="8jhFf3LtY-YSPnvbyiWp-10" target="8jhFf3LtY-YSPnvbyiWp-11">
          <mxGeometry relative="1" as="geometry" />
        </mxCell>
        <mxCell id="8jhFf3LtY-YSPnvbyiWp-10" value="" style="rounded=0;whiteSpace=wrap;html=1;fillColor=#dae8fc;strokeColor=#6c8ebf;" vertex="1" parent="1">
          <mxGeometry x="430" y="320" width="10" height="10" as="geometry" />
        </mxCell>
        <mxCell id="8jhFf3LtY-YSPnvbyiWp-11" value="" style="rounded=0;whiteSpace=wrap;html=1;fillColor=#fff2cc;strokeColor=#d6b656;" vertex="1" parent="1">
          <mxGeometry x="360" y="320" width="10" height="10" as="geometry" />
        </mxCell>
        <mxCell id="8jhFf3LtY-YSPnvbyiWp-12" style="edgeStyle=orthogonalEdgeStyle;rounded=0;orthogonalLoop=1;jettySize=auto;html=1;entryX=1;entryY=0.5;entryDx=0;entryDy=0;" edge="1" parent="1" target="8jhFf3LtY-YSPnvbyiWp-8">
          <mxGeometry relative="1" as="geometry">
            <mxPoint x="410" y="325" as="sourcePoint" />
            <Array as="points">
              <mxPoint x="410" y="350" />
            </Array>
          </mxGeometry>
        </mxCell>
        <mxCell id="8jhFf3LtY-YSPnvbyiWp-15" value="" style="ellipse;shape=cloud;whiteSpace=wrap;html=1;" vertex="1" parent="1">
          <mxGeometry x="399" y="330" width="23" height="15" as="geometry" />
        </mxCell>
        <mxCell id="8jhFf3LtY-YSPnvbyiWp-16" value="" style="endArrow=none;html=1;rounded=0;" edge="1" parent="1">
          <mxGeometry width="50" height="50" relative="1" as="geometry">
            <mxPoint x="220" y="520" as="sourcePoint" />
            <mxPoint x="480" y="500" as="targetPoint" />
            <Array as="points">
              <mxPoint x="280" y="520" />
              <mxPoint x="280" y="500" />
              <mxPoint x="350" y="500" />
              <mxPoint x="350" y="520" />
              <mxPoint x="380" y="520" />
              <mxPoint x="380" y="500" />
              <mxPoint x="400" y="500" />
              <mxPoint x="400" y="520" />
              <mxPoint x="440" y="520" />
              <mxPoint x="440" y="500" />
            </Array>
          </mxGeometry>
        </mxCell>
        <mxCell id="8jhFf3LtY-YSPnvbyiWp-17" value="" style="endArrow=none;html=1;rounded=0;" edge="1" parent="1">
          <mxGeometry width="50" height="50" relative="1" as="geometry">
            <mxPoint x="220" y="560" as="sourcePoint" />
            <mxPoint x="480" y="560" as="targetPoint" />
            <Array as="points">
              <mxPoint x="320" y="560" />
              <mxPoint x="320" y="540" />
              <mxPoint x="390" y="540" />
              <mxPoint x="390" y="560" />
            </Array>
          </mxGeometry>
        </mxCell>
        <mxCell id="8jhFf3LtY-YSPnvbyiWp-18" value="0" style="rounded=1;whiteSpace=wrap;html=1;" vertex="1" parent="1">
          <mxGeometry x="220" y="580" width="80" height="20" as="geometry" />
        </mxCell>
        <mxCell id="8jhFf3LtY-YSPnvbyiWp-19" value="1" style="rounded=1;whiteSpace=wrap;html=1;" vertex="1" parent="1">
          <mxGeometry x="300" y="580" width="180" height="20" as="geometry" />
        </mxCell>
        <mxCell id="8jhFf3LtY-YSPnvbyiWp-20" value="IDLE" style="rounded=1;whiteSpace=wrap;html=1;fillColor=#f5f5f5;fontColor=#333333;strokeColor=#666666;" vertex="1" parent="1">
          <mxGeometry x="220" y="620" width="60" height="20" as="geometry" />
        </mxCell>
        <mxCell id="8jhFf3LtY-YSPnvbyiWp-21" value="Arb" style="rounded=1;whiteSpace=wrap;html=1;fillColor=#e1d5e7;strokeColor=#9673a6;" vertex="1" parent="1">
          <mxGeometry x="280" y="620" width="40" height="20" as="geometry" />
        </mxCell>
        <mxCell id="8jhFf3LtY-YSPnvbyiWp-22" value="&lt;div&gt;Normal&lt;/div&gt;" style="rounded=1;whiteSpace=wrap;html=1;fillColor=#d5e8d4;strokeColor=#82b366;" vertex="1" parent="1">
          <mxGeometry x="320" y="620" width="70" height="20" as="geometry" />
        </mxCell>
        <mxCell id="8jhFf3LtY-YSPnvbyiWp-23" value="Arb" style="rounded=1;whiteSpace=wrap;html=1;fillColor=#e1d5e7;strokeColor=#9673a6;" vertex="1" parent="1">
          <mxGeometry x="389" y="620" width="71" height="20" as="geometry" />
        </mxCell>
        <mxCell id="8jhFf3LtY-YSPnvbyiWp-25" value="" style="endArrow=classic;startArrow=classic;html=1;rounded=0;startSize=3;endSize=3;" edge="1" parent="1">
          <mxGeometry width="50" height="50" relative="1" as="geometry">
            <mxPoint x="350" y="490" as="sourcePoint" />
            <mxPoint x="380" y="490" as="targetPoint" />
          </mxGeometry>
        </mxCell>
        <mxCell id="8jhFf3LtY-YSPnvbyiWp-26" value="&lt;font style=&quot;font-size: 7px;&quot;&gt;极短间隔请求&lt;/font&gt;" style="text;html=1;whiteSpace=wrap;strokeColor=none;fillColor=none;align=center;verticalAlign=middle;rounded=0;" vertex="1" parent="1">
          <mxGeometry x="335" y="461" width="60" height="30" as="geometry" />
        </mxCell>
        <mxCell id="8jhFf3LtY-YSPnvbyiWp-27" value="&lt;font style=&quot;font-size: 8px;&quot;&gt;同步后的ack&lt;/font&gt;" style="text;html=1;whiteSpace=wrap;strokeColor=none;fillColor=none;align=center;verticalAlign=middle;rounded=0;" vertex="1" parent="1">
          <mxGeometry x="327" y="534" width="60" height="30" as="geometry" />
        </mxCell>
        <mxCell id="8jhFf3LtY-YSPnvbyiWp-28" value="&lt;font style=&quot;font-size: 8px;&quot;&gt;意外拉低的req&lt;/font&gt;" style="text;html=1;whiteSpace=wrap;strokeColor=#b85450;fillColor=#f8cecc;align=center;verticalAlign=middle;rounded=0;" vertex="1" parent="1">
          <mxGeometry x="407.5" y="461" width="55" height="20" as="geometry" />
        </mxCell>
        <mxCell id="8jhFf3LtY-YSPnvbyiWp-29" value="" style="endArrow=classic;html=1;rounded=0;exitX=0.066;exitY=0.882;exitDx=0;exitDy=0;exitPerimeter=0;" edge="1" parent="1" source="8jhFf3LtY-YSPnvbyiWp-28">
          <mxGeometry width="50" height="50" relative="1" as="geometry">
            <mxPoint x="380" y="541" as="sourcePoint" />
            <mxPoint x="390" y="500" as="targetPoint" />
          </mxGeometry>
        </mxCell>
        <mxCell id="8jhFf3LtY-YSPnvbyiWp-31" value="" style="endArrow=none;html=1;rounded=0;entryX=0.5;entryY=1;entryDx=0;entryDy=0;dashed=1;" edge="1" parent="1">
          <mxGeometry width="50" height="50" relative="1" as="geometry">
            <mxPoint x="390" y="570" as="sourcePoint" />
            <mxPoint x="390" y="499" as="targetPoint" />
          </mxGeometry>
        </mxCell>
        <mxCell id="8jhFf3LtY-YSPnvbyiWp-32" value="" style="endArrow=classic;html=1;rounded=0;entryX=0.42;entryY=0;entryDx=0;entryDy=0;entryPerimeter=0;dashed=1;fillColor=#f8cecc;strokeColor=#b85450;" edge="1" parent="1">
          <mxGeometry width="50" height="50" relative="1" as="geometry">
            <mxPoint x="403" y="529" as="sourcePoint" />
            <mxPoint x="413" y="619" as="targetPoint" />
          </mxGeometry>
        </mxCell>
        <mxCell id="8jhFf3LtY-YSPnvbyiWp-33" value="&lt;font style=&quot;font-size: 8px;&quot;&gt;DMA看到是源头req主动撤销&lt;/font&gt;" style="text;html=1;whiteSpace=wrap;strokeColor=none;fillColor=none;align=center;verticalAlign=middle;rounded=0;" vertex="1" parent="1">
          <mxGeometry x="345.5" y="640" width="130" height="30" as="geometry" />
        </mxCell>
        <mxCell id="8jhFf3LtY-YSPnvbyiWp-34" value="REQ" style="text;html=1;whiteSpace=wrap;strokeColor=none;fillColor=none;align=center;verticalAlign=middle;rounded=0;" vertex="1" parent="1">
          <mxGeometry x="160" y="495" width="60" height="30" as="geometry" />
        </mxCell>
        <mxCell id="8jhFf3LtY-YSPnvbyiWp-35" value="ACK" style="text;html=1;whiteSpace=wrap;strokeColor=none;fillColor=none;align=center;verticalAlign=middle;rounded=0;" vertex="1" parent="1">
          <mxGeometry x="160" y="534" width="60" height="30" as="geometry" />
        </mxCell>
        <mxCell id="8jhFf3LtY-YSPnvbyiWp-36" value="FIFO Datas" style="text;html=1;whiteSpace=wrap;strokeColor=none;fillColor=none;align=center;verticalAlign=middle;rounded=0;" vertex="1" parent="1">
          <mxGeometry x="152" y="575" width="60" height="30" as="geometry" />
        </mxCell>
        <mxCell id="8jhFf3LtY-YSPnvbyiWp-37" value="DMA State" style="text;html=1;whiteSpace=wrap;strokeColor=none;fillColor=none;align=center;verticalAlign=middle;rounded=0;" vertex="1" parent="1">
          <mxGeometry x="152" y="610" width="60" height="30" as="geometry" />
        </mxCell>
      </root>
    </mxGraphModel>
  </diagram>
</mxfile>
